<svg xmlns="http://www.w3.org/2000/svg" viewBox="0 0 1200 630" width="1200" height="630">
  <defs>
    <!-- Import Google Fonts -->
    <style type="text/css">
      @import url('https://fonts.googleapis.com/css2?family=Montserrat:wght@400;700;900&amp;family=Inter:wght@400;700;800&amp;display=swap');
      
      .bg { fill: #050505; }
      .grid { stroke: rgba(255, 255, 255, 0.04); stroke-width: 1; }
      .orange-text { fill: #FF5A00; }
      .white-text { fill: #FFFFFF; }
      .gold-text { fill: #F0C067; }
      .gray-text { fill: #9CA3AF; }
      
      .font-display { font-family: 'Montserrat', 'Helvetica Neue', sans-serif; }
      .font-body { font-family: 'Inter', sans-serif; }
      
      .title { font-weight: 900; font-size: 58px; letter-spacing: -0.02em; }
      .subtitle { font-weight: 800; font-size: 24px; letter-spacing: 0.16em; }
      .badge-text { font-weight: 900; font-size: 14px; letter-spacing: 0.28em; }
      .detail-title { font-weight: 700; font-size: 14px; letter-spacing: 0.2em; }
      .detail-val { font-weight: 800; font-size: 28px; letter-spacing: -0.01em; }
    </style>
  </defs>

  <!-- Base Dark Brutalist Background -->
  <rect width="1200" height="630" class="bg" />

  <!-- Technical Blueprint Grid Lines (42px spacing) -->
  <g class="grid">
    <!-- Vertical grid lines -->
    <line x1="42" y1="0" x2="42" y2="630" />
    <line x1="84" y1="0" x2="84" y2="630" />
    <line x1="126" y1="0" x2="126" y2="630" />
    <line x1="168" y1="0" x2="168" y2="630" />
    <line x1="210" y1="0" x2="210" y2="630" />
    <line x1="252" y1="0" x2="252" y2="630" />
    <line x1="294" y1="0" x2="294" y2="630" />
    <line x1="336" y1="0" x2="336" y2="630" />
    <line x1="378" y1="0" x2="378" y2="630" />
    <line x1="420" y1="0" x2="420" y2="630" />
    <line x1="462" y1="0" x2="462" y2="630" />
    <line x1="504" y1="0" x2="504" y2="630" />
    <line x1="546" y1="0" x2="546" y2="630" />
    <line x1="588" y1="0" x2="588" y2="630" />
    <line x1="630" y1="0" x2="630" y2="630" />
    <line x1="672" y1="0" x2="672" y2="630" />
    <line x1="714" y1="0" x2="714" y2="630" />
    <line x1="756" y1="0" x2="756" y2="630" />
    <line x1="798" y1="0" x2="798" y2="630" />
    <line x1="840" y1="0" x2="840" y2="630" />
    <line x1="882" y1="0" x2="882" y2="630" />
    <line x1="924" y1="0" x2="924" y2="630" />
    <line x1="966" y1="0" x2="966" y2="630" />
    <line x1="1008" y1="0" x2="1008" y2="630" />
    <line x1="1050" y1="0" x2="1050" y2="630" />
    <line x1="1092" y1="0" x2="1092" y2="630" />
    <line x1="1134" y1="0" x2="1134" y2="630" />
    <line x1="1176" y1="0" x2="1176" y2="630" />

    <!-- Horizontal grid lines -->
    <line x1="0" y1="42" x2="1200" y2="42" />
    <line x1="0" y1="84" x2="1200" y2="84" />
    <line x1="0" y1="126" x2="1200" y2="126" />
    <line x1="0" y1="168" x2="1200" y2="168" />
    <line x1="0" y1="210" x2="1200" y2="210" />
    <line x1="0" y1="252" x2="1200" y2="252" />
    <line x1="0" y1="294" x2="1200" y2="294" />
    <line x1="0" y1="336" x2="1200" y2="336" />
    <line x1="0" y1="378" x2="1200" y2="378" />
    <line x1="0" y1="420" x2="1200" y2="420" />
    <line x1="0" y1="462" x2="1200" y2="462" />
    <line x1="0" y1="504" x2="1200" y2="504" />
    <line x1="0" y1="546" x2="1200" y2="546" />
    <line x1="0" y1="588" x2="1200" y2="588" />
  </g>

  <!-- Top Decorative Technical Ruler (Brutalist style) -->
  <g>
    <!-- Border outline -->
    <rect x="0" y="0" width="1200" height="24" fill="#111111" stroke="rgba(255,255,255,0.1)" stroke-width="1" />
    <line x1="0" y1="24" x2="1200" y2="24" stroke="#FF5A00" stroke-width="2" />
    
    <!-- Increment ticks -->
    <g stroke="rgba(255,255,255,0.25)" stroke-width="1">
      <line x1="100" y1="12" x2="100" y2="24" />
      <line x1="200" y1="12" x2="200" y2="24" />
      <line x1="300" y1="12" x2="300" y2="24" />
      <line x1="400" y1="12" x2="400" y2="24" />
      <line x1="500" y1="12" x2="500" y2="24" />
      <line x1="600" y1="12" x2="600" y2="24" />
      <line x1="700" y1="12" x2="700" y2="24" />
      <line x1="800" y1="12" x2="800" y2="24" />
      <line x1="900" y1="12" x2="900" y2="24" />
      <line x1="1000" y1="12" x2="1000" y2="24" />
      <line x1="1100" y1="12" x2="1100" y2="24" />
      
      <!-- Small ticks -->
      <line x1="50" y1="18" x2="50" y2="24" />
      <line x1="150" y1="18" x2="150" y2="24" />
      <line x1="250" y1="18" x2="250" y2="24" />
      <line x1="350" y1="18" x2="350" y2="24" />
      <line x1="450" y1="18" x2="450" y2="24" />
      <line x1="550" y1="18" x2="550" y2="24" />
      <line x1="650" y1="18" x2="650" y2="24" />
      <line x1="750" y1="18" x2="750" y2="24" />
      <line x1="850" y1="18" x2="850" y2="24" />
      <line x1="950" y1="18" x2="950" y2="24" />
      <line x1="1050" y1="18" x2="1050" y2="24" />
      <line x1="1150" y1="18" x2="1150" y2="24" />
    </g>
    <text x="10" y="16" fill="rgba(255,255,255,0.4)" font-family="monospace" font-size="10">SYS.MARK: OG_1.91_ACTIVE</text>
  </g>

  <!-- Left Accent Stripe (Orange Safety Dash) -->
  <g>
    <!-- Solid bar -->
    <rect x="0" y="24" width="8" height="606" fill="#FF5A00" />
    <!-- Additional technical dashes -->
    <line x1="24" y1="64" x2="24" y2="580" stroke="rgba(255,90,0,0.15)" stroke-dasharray="10 15" stroke-width="2" />
  </g>

  <!-- Main Hero Brand Content -->
  <g transform="translate(84, 110)">
    <!-- Brand badge -->
    <g>
      <rect x="0" y="0" width="530" height="38" fill="rgba(255, 90, 0, 0.1)" stroke="rgba(255, 90, 0, 0.3)" stroke-width="1" />
      <text x="16" y="24" class="font-display badge-text orange-text">REGISTERED • MN SPECIALTY • INSURED</text>
    </g>

    <!-- Company Name Title -->
    <g transform="translate(0, 100)">
      <text x="0" y="0" class="font-display title white-text">SKY'S THE LIMIT</text>
      <text x="0" y="65" class="font-display title orange-text">PAINTING LLC</text>
    </g>

    <!-- Subtitle descriptor -->
    <g transform="translate(0, 215)">
      <text x="0" y="0" class="font-body subtitle gold-text">PREMIER TWIN CITIES CONTRACTOR</text>
      <text x="0" y="30" class="font-body gray-text" font-size="16" font-weight="600">Owner Anthony Briseno • Masterfully Prepared Surface Solutions</text>
    </g>
  </g>

  <!-- Technical Division Vertical Line -->
  <line x1="720" y1="126" x2="720" y2="546" stroke="rgba(255,255,255,0.1)" stroke-width="1" />
  <line x1="720" y1="210" x2="736" y2="210" stroke="#FF5A00" stroke-width="2" />

  <!-- Right Details Area -->
  <g transform="translate(762, 140)">
    <!-- Segment 1: MN Specialty Registration -->
    <g transform="translate(0, 0)">
      <text x="0" y="0" class="font-display detail-title gray-text">MN CONTRACTOR REG.</text>
      <text x="0" y="32" class="font-body detail-val white-text">IR816596</text>
      <line x1="0" y1="46" x2="80" y2="46" stroke="rgba(255,255,255,0.1)" stroke-width="1" />
    </g>

    <!-- Segment 2: Service Area -->
    <g transform="translate(0, 110)">
      <text x="0" y="0" class="font-display detail-title gray-text">SERVICE RADIUS</text>
      <text x="0" y="32" class="font-body detail-val gold-text">Twin Cities Metro</text>
      <text x="0" y="52" class="font-body gray-text" font-size="13" font-weight="500">Inver Grove • St. Paul • Eagan &amp; Surrounding</text>
      <line x1="0" y1="66" x2="80" y2="66" stroke="rgba(255,255,255,0.1)" stroke-width="1" />
    </g>

    <!-- Segment 3: Telephone -->
    <g transform="translate(0, 240)">
      <text x="0" y="0" class="font-display detail-title orange-text">DIRECT INQUIRIES</text>
      <text x="0" y="36" class="font-body detail-val white-text" font-size="34" font-weight="900">651-410-4196</text>
      <text x="0" y="58" class="font-body gray-text" font-size="13" font-weight="500">Call / Text For Surface Estimator Access</text>
    </g>
  </g>

  <!-- Technical Corner Marks (Brutalist alignment crosshairs) -->
  <!-- Top Right -->
  <path d="M 1150 60 L 1170 60 L 1170 80" fill="none" stroke="rgba(255,255,255,0.2)" stroke-width="1.5" />
  <circle cx="1170" cy="60" r="2" fill="#FF5A00" />
  
  <!-- Bottom Right -->
  <path d="M 1150 570 L 1170 570 L 1170 550" fill="none" stroke="rgba(255,255,255,0.2)" stroke-width="1.5" />
  <circle cx="1170" cy="570" r="2" fill="#FF5A00" />

  <!-- Bottom Left -->
  <path d="M 50 570 L 30 570 L 30 550" fill="none" stroke="rgba(255,255,255,0.2)" stroke-width="1.5" />
  <circle cx="30" cy="570" r="2" fill="#FF5A00" />

  <!-- Decorative Paint Roller Technical Diagram (Geometric Minimal Vector) -->
  <g transform="translate(560, 220)" stroke="#FF5A00" stroke-width="1.5" fill="none" opacity="0.4">
    <!-- Roller sleeve -->
    <rect x="0" y="0" width="30" height="70" rx="3" stroke-width="2" />
    <path d="M 15 -10 L 15 0" />
    <!-- Handle assembly -->
    <path d="M 15 70 L 15 90 L -10 90 L -10 140" />
    <!-- Handle grip -->
    <rect x="-17" y="140" width="14" height="40" rx="2" fill="#FF5A00" opacity="0.5" />
    <!-- Decorative blueprint crosshair -->
    <circle cx="15" cy="35" r="45" stroke="rgba(255,255,255,0.1)" stroke-dasharray="3 3" />
  </g>

  <!-- Bottom Technical Status Bar -->
  <g transform="translate(42, 606)">
    <text x="0" y="0" fill="rgba(255,255,255,0.25)" font-family="monospace" font-size="11">SCALE: 1:1.91 | TARGET: GOOGLE_SEARCH_PACK | STATUS: PRODUCTION_DEPLOYED</text>
    <text x="1100" y="0" fill="rgba(255,255,255,0.25)" font-family="monospace" font-size="11" text-anchor="end">MN REG: 238320</text>
  </g>
</svg>
